<svg xmlns="http://www.w3.org/2000/svg" viewBox="0 0 511.64 82.72"><defs><style>.cls-1{fill:#231f20;}</style></defs><g id="Layer_2" data-name="Layer 2"><g id="Layer_2-2" data-name="Layer 2"><path class="cls-1" d="M0,0V82.72H511.64V0ZM498.38,59.66a17.4,17.4,0,0,1-8-12.45c-.31-2.36-.44-4.74-.84-7.1-.28-1.69-1.24-8.53-3.91-5.47-1.77,2-3.83,4.8-6.87,3.29a6.84,6.84,0,0,1-2.95-3.11c-.92-2.09-1.24-4.49-2.14-6.62s-2.72-5.32-4-1.64c-1.94,5.5-1.38,11.91-2.3,17.64-.86,5.33-2.3,12.23-7.08,15.5-6,4.07-12.88-.05-16.39-5.27-2.54-3.77-2.84-7.62-3.38-11.92-.19-1.47-.74-9.28-3.2-9-.93.12-1.67,1.79-2.16,2.35a6.11,6.11,0,0,1-3.63,2.29c-2,.22-3.67-1.24-4.68-2.8S423.49,22.69,421,24.94c-1.45,1.28-1.52,4.82-1.72,6.52-.35,2.86-.48,5.73-.86,8.59-.72,5.38-1.89,11.08-4.78,15.75s-8.11,7.36-13.35,4.57c-5-2.68-8.31-8.59-8.85-14.12A47.69,47.69,0,0,0,389.74,36c-.31-1-.86-2.83-2.18-2.39-1.1.36-1.87,2.29-2.69,3a4.87,4.87,0,0,1-3.49,1.52c-5.86-.35-5.2-9.52-8-12.85s-3.59,6.11-3.71,7.25c-.62,5.9-1,11.76-2.86,17.44C365.15,55,361.85,61.22,356,61.61c-6.28.42-11.32-6.26-13.2-11.53-1.17-3.28-1.05-7-1.64-10.39-.3-1.68-.55-3.93-1.58-5.37-1.14-1.59-2-.19-2.83.91-1.7,2.16-4.18,4-6.83,2.24a7.09,7.09,0,0,1-2.46-2.83c-1-2.25-1.31-4.77-2.31-7-.36-.82-1-2.7-2.05-3-1.19-.32-1.64,1.26-1.91,2.13-1.71,5.57-1.28,11.75-2.38,17.47-1.06,5.49-2.83,12-7.5,15.59-5.3,4-11.2.55-14.75-4-2.79-3.62-3.81-7.39-4.28-11.8a55.36,55.36,0,0,0-.95-6.13c-.25-1.09-.62-3.59-1.78-4.17-.57-.28-.9-.07-1.35.32-1.21,1-1.81,2.58-3.24,3.47-2.09,1.3-4.19.63-5.76-1.11-1.44-1.59-1.65-3.47-2.3-5.46-.4-1.25-1.8-6.73-3.81-6.33-1.34.28-1.68,3.34-1.86,4.31-.57,3.1-.68,6.25-1,9.37-.89,8.23-4.53,27-16.94,22.67-5.87-2-9.67-8.71-10.25-14.62a54.2,54.2,0,0,0-1.49-9.74c-.26-.89-.79-3.18-2.09-3-.84.1-1.47,1.49-1.9,2a6.61,6.61,0,0,1-3.68,2.59c-2.61.45-4.87-2-5.55-4.29-.8-2.72-1.46-5.88-3.14-8.22-2.63-3.67-3.56,4-3.74,5.45-1.23,9.48-2.43,20.56-9.47,27.81-3.09,3.18-7,3.73-10.61,1-6.32-4.75-7-11.84-8.26-19-.35-2-1.45-9.66-4.48-6.11-2.21,2.61-4.86,5-8,1.87-2.71-2.72-2.45-6.79-4.3-9.95-.81-1.4-2.39-3-3.38-.86-.78,1.68-.75,4.05-1,5.88-1,8.24-1.4,17.41-6.31,24.48-2,2.92-5.16,5.44-8.9,5.25-3-.14-5.67-2-7.66-4.15-3.35-3.65-4.71-8-5.19-12.76-.2-1.94-.45-3.89-.83-5.81-.27-1.33-.55-3.91-1.73-4.82-1.6-1.24-3.11,2.23-4.07,3a4.25,4.25,0,0,1-6,0c-1.77-1.61-2-3.37-2.66-5.54-.43-1.38-1.73-6.84-3.75-6.79-1.25,0-1.65,2.43-1.85,3.29a73.4,73.4,0,0,0-1.12,9.35c-.81,8.12-3.15,24.27-14.11,24.3-6.6,0-11.47-7.06-12.83-12.85-.78-3.31-.71-6.8-1.39-10.15-.26-1.25-.57-3.88-1.77-4.68-1.56-1.07-3,2.32-4,3.11-2.84,2.4-6.49.78-7.76-2.46-1-2.52-1.4-5.22-2.65-7.67-.35-.69-1.07-2.34-2.07-2.24-1.27.12-1.64,2.64-1.84,3.53-2.16,9.9-.82,21.44-7.75,29.81-3.46,4.18-8.63,4.5-13.07,1.49-4.74-3.22-7.12-8.5-7.62-14-.31-3.36-.38-8-2.23-10.89-1.11-1.75-2-.39-2.91.78-1.63,2.08-4.06,3.92-6.67,2.34-2.15-1.3-2.62-3.09-3.27-5.27a39.13,39.13,0,0,0-1.6-4.56c-.37-.87-1-2.72-2-3.08-3-1-3.24,11.1-3.35,12.29C22.36,43,21.19,49.48,18,54.81c-2,3.28-5.74,7.29-10,7-.16,0,.08-5,0-5,4,.28,7.6-3.27,9.57-6.29,3.24-5,4.52-11.11,5.2-16.92.18-1.5.19-14.32,3.26-14,2,.19,3.25,5.57,3.71,7.05.68,2.21.93,3.95,2.85,5.5,2.09,1.7,4.4,1.13,6.23-.67.93-.92,2.17-3.95,3.7-2.41,1.13,1.15,1.38,3.57,1.67,5.07.35,1.89.59,3.79.78,5.7.52,5.34,2.3,10.26,6.6,13.77s9.7,4.05,13.56,0c7.27-7.68,6.44-19.75,8.13-29.39.43-2.46,1.68-6.71,3.85-2.87,1.41,2.49,1.91,5.29,2.85,8s4,5,6.83,3.39c1.55-.87,2.16-2.39,3.39-3.53.41-.37.72-.69,1.29-.5,1.23.4,1.66,3.09,1.89,4.09.76,3.25.83,6.54,1.34,9.81.9,5.79,5.37,12.84,11.58,13.87,11.64,1.92,14.61-15.2,15.49-23.31.33-3,.44-6,1-8.9.18-1,.49-4.19,1.84-4.56,2-.55,3.44,4.94,3.83,6.15.67,2,.87,4,2.35,5.61s3.48,2.4,5.51,1.27c1.58-.88,2.16-2.59,3.49-3.64.44-.34.71-.57,1.27-.35,1.23.5,1.62,3.17,1.86,4.25a54.48,54.48,0,0,1,.93,6c.5,4.61,1.43,8.69,4.44,12.44,4.48,5.61,11.48,7,16.45,1.09,5.48-6.53,6.07-15.92,7-24,.2-1.69.54-11.2,3.76-7.85,2.58,2.68,2.14,7,4.24,10,2.26,3.21,5.57,3.21,8,.26.89-1.06,2-3.17,3.36-1.54,1,1.18,1.35,3.6,1.66,5.08.8,3.82.95,7.77,2.14,11.51a18.87,18.87,0,0,0,5.6,8.38c3.32,2.91,7.29,3.35,10.68.34,3.6-3.19,5.65-8.12,7.17-12.57a65.06,65.06,0,0,0,2.85-14.43c.11-1.05.88-10.43,3.65-7.33,1.83,2.05,2.56,5.53,3.28,8.11.62,2.23,2.25,4.67,4.82,4.82a5.12,5.12,0,0,0,3.75-1.75c.72-.71,1.38-2.34,2.35-2.77,1.31-.56,1.89,1.22,2.22,2.18A45.85,45.85,0,0,1,243,41.22c.52,5.64,3.89,11.73,9.14,14.24,5.44,2.61,10.61-.46,13.4-5.23s3.89-10.56,4.54-16c.37-3,.48-6.11.94-9.14.18-1.21.39-4.7,1.79-5.38,2-1,3.49,4.45,3.88,5.6.63,1.86.84,4,2.07,5.55s3.12,2.86,5.23,2.1c1.8-.64,2.71-2.24,3.91-3.6.32-.38.67-.88,1.24-.82,2.47.26,2.84,8,3,9.75.49,4.22,1.12,7.84,3.62,11.49,3.2,4.65,9,9.12,14.66,5.62,4.88-3,6.87-9.41,8-14.71,1.31-6,1-12.17,2.46-18.08.21-.85.62-3.08,1.86-3.05,1,0,1.73,1.79,2.07,2.5,1.16,2.41,1.54,5.05,2.53,7.49,1.47,3.62,5.44,4.69,8.26,1.91.87-.86,2.11-3.86,3.62-2.5,1.15,1,1.42,3.5,1.7,4.91.64,3.32.52,6.88,1.44,10.13,1.54,5.43,6.31,12.14,12.44,12.61s9.74-5.57,11.53-10.44c2-5.41,2.6-11.16,3.09-16.86.08-1,.7-11.81,3.6-9.26,3.79,3.32,1.8,11.39,7.51,13a4.12,4.12,0,0,0,3.53-.75c1.27-.88,1.87-2.6,3.09-3.4s1.79.2,2.26,1.33c1.38,3.29,1.58,7.19,1.91,10.71a18.88,18.88,0,0,0,7.85,13.8c4.95,3.3,10.55,1.58,13.81-3.09,3.15-4.51,4.41-10.26,5.2-15.61.39-2.67.56-5.35.83-8,.22-2.28.23-5.76,1.63-7.73,2.39-3.34,5.16,8.34,5.88,9.71a5.92,5.92,0,0,0,4.08,3.18,4.74,4.74,0,0,0,3.69-1.5c.86-.78,1.53-2.52,2.6-3,2.51-1.11,3.25,6.7,3.44,8,.56,4.09.63,7.89,2.79,11.6,3.19,5.48,9.85,10.27,16.22,6.89,5.12-2.72,6.79-9.59,7.74-14.82,1.07-5.94.67-12.25,2.27-18.07.24-.88.69-2.83,2-2.56,1,.2,1.64,1.95,2,2.72,1.08,2.34,1.43,5,2.42,7.29a7.16,7.16,0,0,0,2.16,2.63c2.37,1.79,4.8.68,6.6-1.36.85-1,1.83-3.3,3.22-1.79,1.09,1.18,1.35,3.53,1.63,5,.48,2.57.64,5.15.95,7.73a17.41,17.41,0,0,0,8.05,12.64C499.16,55.15,497.65,59.21,498.38,59.66Z"/></g></g></svg>