<svg xmlns="http://www.w3.org/2000/svg" viewBox="0 0 532.09 91.71"><defs><style>.cls-1{fill:#231f20;}</style></defs><g id="Layer_2" data-name="Layer 2"><g id="Layer_3" data-name="Layer 3"><path class="cls-1" d="M0,0V91.71H532.09V0ZM520.84,83.65l-3-63.59h-8.24V8.48H489.8v76.6H465.48l-.37-1a40.54,40.54,0,0,1-2-13.79c.07-6-5.61-10-5.66-10-.91-.62-4-2.8-4.64-4.59-.47-1.26-.77-3.94-1.21-8.19-.37-3.51-.82-7.83-1.37-9.37L445,33.25l-.08-.52c0-.21-.06-.4-.08-.58-.14,1.05-.26,2.17-.34,3.21-.29,5.16-2,31.25-8,34.55-8.35,4.63-12.11,8.53-12.14,8.57l-.43.45-.63,0-16.55.37v-.24H386.39l-1.51-4.82a1.78,1.78,0,0,0-3.14-.51c-1.92,7.5-3.84,7.53-4.57,7.54h0c-1.85,0-2.47-2.24-2.67-3a56.19,56.19,0,0,1-1.74-13.21c-.11-.65-.27-1.32-.43-1.9l-.06.18c-1.87,5.91-6.38,14.44-6.58,14.8l-.74,1.4-4.17-2.53L358,81.46h-1.58a1.53,1.53,0,0,0-1.26,2.41l1.64,2.36h-41.6L315,85.06c-1.73-7.52-4.46-19-5.71-23.58-.82.84-1.86,2-2.77,3l-2.06,2.32-2.1-12a63.44,63.44,0,0,1-2.95,6.3l-2,3.85L294.52,49.2c-.2.92-.4,2-.62,3.28-.6,3.61-1.89,5.91-3.83,6.83a4.51,4.51,0,0,1-2.26.41L284.28,78.1,271.1,11.81,266,11.59c-.07,4.84-.3,20.3-.62,35.61-.79,38.25-1,38.34-2.43,38.8-.2.07-.7.23-17.08.23-8.2,0-20.4,0-38.55-.15h-1.42l-3.07-65h-8.23V9.48H174.78v76.6H150.46l-.37-1a40.54,40.54,0,0,1-2-13.79c.07-6-5.61-10-5.67-10-.91-.62-4-2.8-4.63-4.59-.47-1.26-.77-3.93-1.22-8.19-.36-3.51-.81-7.83-1.36-9.37L130,34.25l-.07-.52c0-.21-.06-.4-.09-.58-.13,1.05-.25,2.17-.33,3.21-.29,5.16-2,31.25-8,34.55-8.35,4.63-12.11,8.53-12.15,8.57l-.44.46h-.63l-60.62.42,1.08-.29H38.15l-1.5-4.82a1.78,1.78,0,0,0-3.15-.51c-1.91,7.5-3.84,7.53-4.56,7.54-1.85,0-2.5-2.23-2.7-3A56.19,56.19,0,0,1,24.5,66.11a17.08,17.08,0,0,0-.44-1.9l-.06.18c-1.86,5.91-6.38,14.44-6.57,14.8l-.74,1.4-4.18-2.53-2.72,4.4h-5v-3H8.12L11.53,74l4,2.42a99.29,99.29,0,0,0,5.63-12.88c.35-1.08,1.14-3.62,3.1-3.47.58,0,2.34.17,3.24,5.72l0,.12V66a54.13,54.13,0,0,0,1.59,12.41,27.19,27.19,0,0,0,1.56-4.6l.05-.21.11-.18a4.78,4.78,0,0,1,8.7,1l.85,2.71h31l-.49.13L107.63,77A61.68,61.68,0,0,1,120,68.29c3.32-1.84,5.78-19.9,6.46-32.14.78-9.78,2.14-9.82,3.23-9.85,1.78,0,2.41,2,3.08,6.48l4.94,4.6.12.27c.75,1.61,1.17,5.23,1.73,10.56a55.55,55.55,0,0,0,1,7.45,13.4,13.4,0,0,0,3.52,3.17c.3.2,7.05,5,7,12.53a41.31,41.31,0,0,0,1.45,11.72h19.2V6.48h25.81V18.06h8.1l3.06,65c19.34.11,46.76.21,52.47.06.67-6.86,1.42-46.55,1.79-73.15l0-1.54,10.55.46,10.65,53.53,1.33-7,1.83,1a1.68,1.68,0,0,0,1.42,0c.56-.28,1.58-1.24,2.14-4.6.66-4,1.75-9,3.16-10L296,40.62l2.67,15c2.34-5.24,2.43-7.63,2.43-7.66l3-.24,2.19,12.48c2.65-2.83,3.08-2.83,3.65-2.83,1.52,0,1.7,0,7.66,25.86h34.3a4.6,4.6,0,0,1,.51-2.34,4.52,4.52,0,0,1,3.93-2.43l3.4-5.51,4,2.42a102.11,102.11,0,0,0,5.63-12.88c.34-1.08,1.13-3.61,3.09-3.47.58,0,2.34.17,3.24,5.72l0,.24a54.65,54.65,0,0,0,1.59,12.4,27.57,27.57,0,0,0,1.57-4.59l.05-.21.1-.18a4.79,4.79,0,0,1,8.71,1l.84,2.71h21.17v.18l12.89-.3a61.42,61.42,0,0,1,12.41-8.67c3.32-1.84,5.78-19.9,6.46-32.14.79-9.78,2.14-9.82,3.24-9.85h.07c1.71,0,2.34,2,3,6.49l4.94,4.6.12.27c.75,1.61,1.17,5.22,1.73,10.56a55.55,55.55,0,0,0,1,7.45,13.4,13.4,0,0,0,3.52,3.17c.3.2,7.06,5,7,12.53a41.31,41.31,0,0,0,1.45,11.72h19.2V5.48h25.81V17.06h8.1l3.13,66.45Z"/></g></g></svg>