<svg xmlns="http://www.w3.org/2000/svg" viewBox="0 0 2128.89 627.59"><defs><style>.cls-1{fill:#af0000;}.cls-2{fill:#fff;}</style></defs><g id="Layer_2" data-name="Layer 2"><g id="Layer_1-2" data-name="Layer 1"><polygon class="cls-1" points="139.91 475.56 188.4 152.17 244.66 152.17 205.48 418.44 296.32 418.44 287.46 475.56 139.91 475.56"/><path class="cls-2" d="M236,159.67,196.79,425.94h90.78L281,468.06H148.62l46.24-308.39H236m17.37-15H181.94L180,157.44,133.79,465.83l-2.58,17.23H293.88l2-12.7,6.54-42.12,2.68-17.3H214.16l36.66-249.09,2.53-17.18Z"/><polygon class="cls-1" points="371.32 475.56 418.79 152.17 475.54 152.17 428.08 475.56 371.32 475.56"/><path class="cls-2" d="M466.86,159.67,421.6,468.06H380l45.26-308.39h41.59m17.36-15H412.31l-1.88,12.82L365.17,465.88l-2.53,17.18h71.92l1.88-12.83L481.7,161.85l2.52-17.18Z"/><polygon class="cls-1" points="515.05 475.56 563.54 152.17 722.95 152.17 714.68 208.32 611.92 208.32 602.78 270.78 705.03 270.78 696.76 327.41 594.5 327.41 572.83 475.56 515.05 475.56"/><path class="cls-2" d="M714.27,159.67l-6.06,41.15H605.44L594.1,278.28H696.35l-6.07,41.63H588L566.35,468.06H523.76L570,159.67H714.27m17.37-15H557.08l-1.92,12.77L508.93,465.83l-2.58,17.23h73l1.87-12.83L601,334.91H703.25l1.87-12.83,6.08-41.64,2.5-17.16H611.46l6.94-47.46H721.16L723.05,203l6.06-41.15,2.53-17.18Z"/><polygon class="cls-1" points="760.48 475.56 808.96 152.17 969.44 152.17 960.52 208.32 857.3 208.32 847.81 270.3 951.43 270.3 943.17 326.44 840.01 326.44 826.52 418.44 929.03 418.44 921.48 475.56 760.48 475.56"/><path class="cls-2" d="M960.66,159.67l-6.55,41.15H850.86l-11.78,77H942.74l-6,41.15H833.53l-15.69,107H920.47l-5.56,42.12H769.19l46.23-308.39H960.66m17.57-15H802.5l-1.91,12.77L754.35,465.83l-2.58,17.23H928.06l1.72-13,5.57-42.12,2.24-17H835.2l11.29-77H949.64l1.89-12.82L957.58,280l2.53-17.18H856.55l7.19-47H966.92l2-12.65L975.47,162l2.76-17.35Z"/><polygon class="cls-1" points="1018.25 475.56 1066.73 152.17 1122.99 152.17 1083.81 418.44 1174.65 418.44 1165.79 475.56 1018.25 475.56"/><path class="cls-2" d="M1114.31,159.67l-39.19,266.27h90.78l-6.54,42.12H1027l46.24-308.39h41.12m17.37-15h-71.41l-1.92,12.77-46.23,308.39-2.58,17.23h162.67l2-12.7,6.54-42.12,2.68-17.3h-90.91l36.66-249.09,2.53-17.18Z"/><polygon class="cls-1" points="1249.65 475.56 1297.12 152.17 1353.87 152.17 1306.41 475.56 1249.65 475.56"/><path class="cls-2" d="M1345.19,159.67l-45.26,308.39h-41.59l45.26-308.39h41.59m17.36-15h-71.91l-1.88,12.82L1243.5,465.88,1241,483.06h71.92l1.88-12.83L1360,161.85l2.52-17.18Z"/><polygon class="cls-1" points="1752.34 475.56 1800.82 152.17 1961.3 152.17 1952.37 208.32 1849.15 208.32 1839.67 270.3 1943.29 270.3 1935.03 326.44 1831.87 326.44 1818.38 418.44 1920.89 418.44 1913.34 475.56 1752.34 475.56"/><path class="cls-2" d="M1952.51,159.67,1946,200.82H1842.72l-11.79,77H1934.6l-6,41.15H1825.39l-15.69,107h102.63l-5.57,42.12H1761l46.24-308.39h145.23m17.58-15H1794.36l-1.92,12.77-46.23,308.39-2.58,17.23h176.28l1.73-13,5.56-42.12,2.25-17H1827.06l11.29-77H1941.5l1.89-12.82,6-41.15L1952,262.8H1848.41l7.18-47h103.18l2-12.65,6.55-41.15,2.76-17.35Z"/><polygon class="cls-1" points="1552.63 203.87 1459.59 476.1 1402.63 476.1 1553.65 35.73 1587.02 407.36 1665.45 152.71 1721.28 152.71 1586.88 587.63 1552.63 203.87"/><path class="cls-2" d="M1549.33,71.45,1583,446l88-285.8h40.12L1591,549l-34-381L1454.23,468.6h-41.1l136.2-397.15M1558,0l-22.84,66.58-136.2,397.16-6.81,19.86H1465l3.47-10.15,79.88-233.72L1576,550.35l6.78,75.9,22.49-72.81,120.15-388.8,6-19.43h-71.53l-3.26,10.59-65.58,212.9L1564.27,70.11,1558,0Z"/><polygon class="cls-1" points="1573.62 430.15 1560.49 279.66 1554.03 205.3 1553.71 201.85 1511.34 326.59 37.95 326.59 174.44 270.44 1473.62 270.44 1554.38 36.2 1568.96 203.96 1579.43 318.4 1587.11 411.34 1629.39 271.36 2087.46 270.35 1938.17 326.59 1667.5 326.51 1586.68 588.3 1573.62 430.15"/><path class="cls-2" d="M1550,72l11.54,132.63L1558,166l-52,153.08H75.89l100-41.15H1479L1550,72m11.54,132.63L1572,319.09l9.13,110.43L1568,279l-6.46-74.37M2046,277.94,1936.8,319.09,1662,319l-71,230-9.87-119.49L1583,451l52-172.17,411.08-.9M1558.79.39l-23,66.73-67.51,195.82H173l-2.74,1.13-100,41.15L0,334.09H1516.71l3.46-10.18L1549.34,238l3.68,42.29,13.12,150.46L1576,550.25l6.4,77.34,22.89-74.15L1673,334l263.77.07h2.73l2.56-1L2051.33,292l77.56-29.22-82.89.19-411.07.9-11.11,0-3.22,10.64-29.26,96.89-4.43-53.55v-.13l-10.47-114.43L1564.91,70.71,1558.79.39Z"/></g></g></svg>